<svg xmlns="http://www.w3.org/2000/svg" version="1.1" xmlns:xlink="http://www.w3.org/1999/xlink" width="1000" height="1000"><style>
    #light-icon {
      display: inline;
    }
    #dark-icon {
      display: none;
    }

    @media (prefers-color-scheme: dark) {
      #light-icon {
        display: none;
      }
      #dark-icon {
        display: inline;
      }
    }
  </style><g id="light-icon"><svg xmlns="http://www.w3.org/2000/svg" version="1.1" xmlns:xlink="http://www.w3.org/1999/xlink" width="1000" height="1000"><g clip-path="url(#SvgjsClipPath1138)"><rect width="1000" height="1000" fill="#ffffff"></rect><g transform="matrix(1.6,0,0,1.6,100,100)"><svg xmlns="http://www.w3.org/2000/svg" version="1.1" xmlns:xlink="http://www.w3.org/1999/xlink" width="500" height="500"><svg xmlns="http://www.w3.org/2000/svg" viewBox="0 0 500 500" width="500" height="500">
  <defs>
    <linearGradient id="emeraldGrad" x1="0%" y1="0%" x2="100%" y2="100%">
      <stop offset="0%" style="stop-color:#34d399;stop-opacity:1"></stop>
      <stop offset="50%" style="stop-color:#10b981;stop-opacity:1"></stop>
      <stop offset="100%" style="stop-color:#047857;stop-opacity:1"></stop>
    </linearGradient>
  <clipPath id="SvgjsClipPath1138"><rect width="1000" height="1000" x="0" y="0" rx="350" ry="350"></rect></clipPath></defs>
  
  <rect width="500" height="500" rx="100" fill="#0a0a0c" stroke="#27272a" stroke-width="15"></rect>
  
  <path d="M 160 160 H 360 V 230 H 290 V 390 H 230 V 230 H 160 Z" fill="#000000" opacity="0.6" transform="translate(10, 10)"></path>

  <path d="M 150 150 H 350 V 220 H 280 V 380 H 220 V 220 H 150 Z" fill="url(#emeraldGrad)"></path>
  
  <polygon points="150,150 170,130 370,130 350,150" fill="#6ee7b7" opacity="0.9"></polygon>
  <polygon points="350,150 370,130 370,200 350,220" fill="#065f46" opacity="0.8"></polygon>
</svg></svg></g></g></svg></g><g id="dark-icon"><svg xmlns="http://www.w3.org/2000/svg" version="1.1" xmlns:xlink="http://www.w3.org/1999/xlink" width="1000" height="1000"><g clip-path="url(#SvgjsClipPath1139)"><rect width="1000" height="1000" fill="#ffffff"></rect><g transform="matrix(1.4,0,0,1.4,150,150)"><svg xmlns="http://www.w3.org/2000/svg" version="1.1" xmlns:xlink="http://www.w3.org/1999/xlink" width="500" height="500"><svg xmlns="http://www.w3.org/2000/svg" viewBox="0 0 500 500" width="500" height="500">
  <defs>
    <linearGradient id="emeraldGrad" x1="0%" y1="0%" x2="100%" y2="100%">
      <stop offset="0%" style="stop-color:#34d399;stop-opacity:1"></stop>
      <stop offset="50%" style="stop-color:#10b981;stop-opacity:1"></stop>
      <stop offset="100%" style="stop-color:#047857;stop-opacity:1"></stop>
    </linearGradient>
  <clipPath id="SvgjsClipPath1139"><rect width="1000" height="1000" x="0" y="0" rx="500" ry="500"></rect></clipPath></defs>
  
  <rect width="500" height="500" rx="100" fill="#0a0a0c" stroke="#27272a" stroke-width="15"></rect>
  
  <path d="M 160 160 H 360 V 230 H 290 V 390 H 230 V 230 H 160 Z" fill="#000000" opacity="0.6" transform="translate(10, 10)"></path>

  <path d="M 150 150 H 350 V 220 H 280 V 380 H 220 V 220 H 150 Z" fill="url(#emeraldGrad)"></path>
  
  <polygon points="150,150 170,130 370,130 350,150" fill="#6ee7b7" opacity="0.9"></polygon>
  <polygon points="350,150 370,130 370,200 350,220" fill="#065f46" opacity="0.8"></polygon>
</svg></svg></g></g></svg></g></svg>